<svg xmlns="http://www.w3.org/2000/svg" version="1.1" xmlns:xlink="http://www.w3.org/1999/xlink"
    xmlns:svgjs="http://svgjs.com/svgjs" width="512" height="512" x="0" y="0" viewBox="0 0 512 512"
    style="enable-background:new 0 0 512 512" xml:space="preserve" class="">
    <g>
        <path
            d="M511.993 42.927c0-.792-.083-1.591-.269-2.388a10.469 10.469 0 0 0-10.194-8.081H139.256c-1.613 0-3.206.373-4.652 1.09L5.818 97.417a10.466 10.466 0 0 0-5.811 9.379l-.007.002v362.274c0 5.783 4.689 10.47 10.47 10.47h362.274a10.46 10.46 0 0 0 4.652-1.09l128.785-63.869a10.472 10.472 0 0 0 5.818-9.38V42.928a.035.035 0 0 0-.006-.001zM362.274 458.601H20.941V117.268h341.333v341.333zm8.016-362.274H55.148l86.561-42.928H456.85l-86.56 42.928zm120.769 302.381-107.845 53.484v-338.9l107.845-53.484v338.9z"
            fill="#000000" data-original="#000000" class=""></path>
        <path
            d="M151.691 285.994c11.072-5.183 19.083-19.082 19.083-39.579 0-30.627-18.611-41.699-44.997-41.699-38.165 0-47.825 24.736-47.825 38.872 0 7.774 1.885 10.13 10.366 10.13 6.832 0 9.423-3.534 9.423-8.717 0-9.894 5.419-22.617 27.564-22.617 17.669 0 26.385 8.481 26.385 27.564 0 22.617-10.601 28.271-27.329 28.271-4.947 0-6.832 4.24-6.832 8.245 0 4.24 1.886 8.245 6.832 8.245 19.083 0 31.569 8.245 31.569 28.742v4.476c0 22.617-10.838 32.511-31.569 32.511-22.852 0-30.862-13.428-30.862-23.558 0-4.947-2.12-7.774-10.131-7.774-6.596 0-9.187 1.885-9.187 9.188 0 17.904 15.313 40.05 50.18 40.05 28.271 0 51.359-13.664 51.359-50.416v-4.476c.002-20.495-10.129-31.803-24.029-37.458zM252.525 204.717h-41.699c-5.418 0-8.952 3.298-8.952 6.832V370.1c0 3.534 3.534 6.832 8.952 6.832h41.699c28.507 0 50.888-13.899 50.888-51.358v-69.499c-.001-37.458-22.383-51.358-50.888-51.358zm31.098 120.857c0 22.853-11.78 33.454-31.098 33.454h-30.862V222.622h30.862c19.318 0 31.098 10.601 31.098 33.454v69.498z"
            fill="#000000" data-original="#000000" class=""></path>
    </g>
</svg>