<svg xmlns="http://www.w3.org/2000/svg" version="1.1" xmlns:xlink="http://www.w3.org/1999/xlink" xmlns:svgjs="http://svgjs.com/svgjs" width="512" height="512" x="0" y="0" viewBox="0 0 28 28" style="enable-background:new 0 0 512 512" xml:space="preserve" class=""><g><g data-name="Layer 2"><path d="M2 27a1 1 0 0 1-.948-1.316l1.21-3.629a3.675 3.675 0 0 0-.094-2.687A12.988 12.988 0 0 1 12.371 1.1a13 13 0 1 1-3.74 24.731 3.679 3.679 0 0 0-2.687-.092l-3.628 1.209A.987.987 0 0 1 2 27zm5.207-3.471a5.39 5.39 0 0 1 2.255.484 11 11 0 1 0 3.151-20.929 10.988 10.988 0 0 0-8.626 15.453 5.663 5.663 0 0 1 .172 4.15l-.578 1.732 1.732-.577a5.981 5.981 0 0 1 1.894-.313z" fill="#000000" data-original="#000000" class=""></path><path d="M19 12H9a1 1 0 0 1 0-2h10a1 1 0 0 1 0 2zM14 17H9a1 1 0 0 1 0-2h5a1 1 0 0 1 0 2z" fill="#000000" data-original="#000000" class=""></path></g></g></svg>