<svg xmlns="http://www.w3.org/2000/svg" version="1.1" xmlns:xlink="http://www.w3.org/1999/xlink" xmlns:svgjs="http://svgjs.com/svgjs" width="512" height="512" x="0" y="0" viewBox="0 0 24 24" style="enable-background:new 0 0 512 512" xml:space="preserve" class=""><g><g data-name="Layer 2"><path d="M19 21.25H5a3.75 3.75 0 0 1-3.75-3.75v-11A3.75 3.75 0 0 1 5 2.75h14a3.75 3.75 0 0 1 3.75 3.75v11A3.75 3.75 0 0 1 19 21.25zm-14-17A2.25 2.25 0 0 0 2.75 6.5v11A2.25 2.25 0 0 0 5 19.75h14a2.25 2.25 0 0 0 2.25-2.25v-11A2.25 2.25 0 0 0 19 4.25z" fill="#000000" data-original="#000000" class=""></path><path d="M10.85 15.77a1.8 1.8 0 0 1-.87-.23A1.75 1.75 0 0 1 9.1 14v-4a1.76 1.76 0 0 1 2.63-1.52l3.46 2a1.75 1.75 0 0 1 0 3l-3.46 2a1.74 1.74 0 0 1-.88.29zm0-6a.19.19 0 0 0-.12 0 .24.24 0 0 0-.13.22v4a.24.24 0 0 0 .13.22.27.27 0 0 0 .25 0l3.45-2a.25.25 0 0 0 0-.44l-3.43-2a.22.22 0 0 0-.15-.03z" fill="#000000" data-original="#000000" class=""></path></g></g></svg>