<svg xmlns="http://www.w3.org/2000/svg" version="1.1" xmlns:xlink="http://www.w3.org/1999/xlink" xmlns:svgjs="http://svgjs.com/svgjs" width="512" height="512" x="0" y="0" viewBox="0 0 28 28" style="enable-background:new 0 0 512 512" xml:space="preserve" class=""><g><path d="m23.555 20.343-1.378-1.892v-7.062A8.325 8.325 0 0 0 15 3.069V2a1 1 0 0 0-2 0v1.069a8.325 8.325 0 0 0-7.177 8.32v7.062l-1.378 1.892a2.31 2.31 0 0 0-.189 2.418 2.244 2.244 0 0 0 2 1.238h3.884a3.981 3.981 0 0 0 7.716 0h3.884a2.244 2.244 0 0 0 2-1.238 2.31 2.31 0 0 0-.185-2.418zM14 25a1.993 1.993 0 0 1-1.722-1h3.444A1.993 1.993 0 0 1 14 25zm7.963-3.146a.239.239 0 0 1-.221.146H6.258a.239.239 0 0 1-.221-.146.312.312 0 0 1 .025-.334l1.569-2.154a1 1 0 0 0 .192-.589v-7.388A6.293 6.293 0 0 1 14 5a6.293 6.293 0 0 1 6.177 6.389v7.388a1 1 0 0 0 .192.589l1.569 2.154a.312.312 0 0 1 .025.334z" data-name="Layer 2" fill="#000000" data-original="#000000" class=""></path></g></svg>