<svg xmlns="http://www.w3.org/2000/svg" version="1.1" xmlns:xlink="http://www.w3.org/1999/xlink" xmlns:svgjs="http://svgjs.com/svgjs" width="512" height="512" x="0" y="0" viewBox="0 0 512 512" style="enable-background:new 0 0 512 512" xml:space="preserve" class=""><g><path d="M360.89 88.168v55.737c0 2.462-1.27 4.697-3.314 5.831-3.883 2.157-8.203-1.861-8.478-2.123a7.502 7.502 0 0 0-10.594 10.626c3.201 3.222 9.398 7.201 16.622 7.201 3.107 0 6.404-.736 9.734-2.585 6.806-3.779 11.035-11.04 11.035-18.951V88.168a7.503 7.503 0 1 0-15.005 0zM424.24 150.529c-7.094 0-13.929-2.871-18.286-7.679a7.504 7.504 0 0 0-11.12 10.076c7.154 7.895 18.147 12.608 29.406 12.608 13.911 0 25.587-8.838 27.761-21.015 1.629-9.122-2.565-21.059-19.222-27.203-8.573-3.162-16.541-6.609-18.809-7.603-1.681-1.298-2.49-3.324-2.176-5.514.202-1.407 1.208-4.842 6.18-6.339 10.234-3.082 19.597 4.383 19.802 4.548a7.503 7.503 0 0 0 9.621-11.515c-.628-.528-15.59-12.87-33.751-7.4-9.051 2.726-15.452 9.844-16.706 18.574-1.172 8.167 2.366 16.023 9.236 20.502.331.216.679.406 1.04.567.395.176 9.788 4.357 20.368 8.259 3.248 1.198 10.691 4.618 9.643 10.487-.757 4.25-5.823 8.647-12.987 8.647zM154.73 211.163a7.503 7.503 0 0 0-7.503 7.503v67.958a7.503 7.503 0 1 0 15.006 0v-27.642h32.023v27.642a7.503 7.503 0 1 0 15.006 0v-67.958a7.503 7.503 0 1 0-15.006 0v25.311h-32.023v-25.311a7.503 7.503 0 0 0-7.503-7.503zM95.536 286.624v-22.057c4.05-.021 8.782-.043 11.42-.043 14.919 0 27.056-11.969 27.056-26.681s-12.137-26.68-27.056-26.68H88.033c-4.032-.08-7.573 3.478-7.503 7.503v67.958a7.503 7.503 0 1 0 15.006 0zm11.42-60.455c6.532 0 12.05 5.346 12.05 11.675s-5.519 11.675-12.05 11.675c-2.619 0-7.293.021-11.329.042-.021-4.163-.056-19.039-.068-23.392zM244.165 286.624v-22.057c4.05-.021 8.782-.043 11.42-.043 14.919 0 27.056-11.969 27.056-26.681s-12.137-26.68-27.056-26.68h-18.923c-4.032-.08-7.573 3.478-7.503 7.503v67.958a7.503 7.503 0 0 0 7.503 7.503 7.502 7.502 0 0 0 7.503-7.503zm11.421-60.455c6.532 0 12.05 5.346 12.05 11.675s-5.519 11.675-12.05 11.675c-2.619 0-7.293.021-11.329.042-.021-4.163-.056-19.039-.068-23.392z" fill="#000000" data-original="#000000" class=""></path><path d="M398.399 275.068h-42.428a114.22 114.22 0 0 0 2.229-22.424c0-7.5-.738-14.83-2.132-21.928a114.921 114.921 0 0 0 41.418 7.753c19.98 0 39.65-5.231 56.882-15.127a7.504 7.504 0 0 0-7.473-13.013c-14.961 8.592-32.046 13.134-49.408 13.134-16.134 0-32.15-3.952-46.315-11.43a7.178 7.178 0 0 0-.585-.272c-9.153-23.648-26-43.493-47.457-56.445a99.24 99.24 0 0 1-5.007-31.217c0-54.79 44.574-99.365 99.365-99.365s99.365 44.575 99.365 99.365a99.306 99.306 0 0 1-24.34 65.154 7.501 7.501 0 0 0 .741 10.585 7.47 7.47 0 0 0 4.919 1.84 7.484 7.484 0 0 0 5.665-2.581 114.315 114.315 0 0 0 28.021-74.999c0-63.064-51.306-114.37-114.37-114.37s-114.37 51.306-114.37 114.37c0 7.604.751 15.13 2.223 22.504-12.653-4.878-26.388-7.56-40.74-7.56H113.601c-20.927 0-41.381 5.739-59.151 16.597a7.503 7.503 0 0 0 7.823 12.805c15.414-9.418 33.163-14.396 51.328-14.396h130.998c54.366 0 98.596 44.23 98.596 98.595a99 99 0 0 1-2.574 22.423h-17.416c-49.531 0-91.752 31.867-107.257 76.172H113.601c-54.365 0-98.595-44.23-98.595-98.595 0-23.052 8.12-45.475 22.866-63.14a7.503 7.503 0 0 0-11.52-9.616C9.359 200.247 0 226.085 0 252.645c0 62.639 50.961 113.601 113.601 113.601h98.23a113.668 113.668 0 0 0-2.227 22.424c0 62.639 50.961 113.601 113.601 113.601h5.713a7.503 7.503 0 1 0 0-15.006h-5.713c-54.365 0-98.595-44.23-98.595-98.595s44.23-98.595 98.595-98.595H398.4c54.365 0 98.595 44.23 98.595 98.596 0 54.365-44.23 98.595-98.595 98.595h-31.99a7.503 7.503 0 1 0 0 15.006h31.99c62.64 0 113.601-50.961 113.601-113.601s-50.962-113.603-113.602-113.603z" fill="#000000" data-original="#000000" class=""></path><path d="M366.41 405.607a7.503 7.503 0 1 0 0 15.006h13.368l-6.882 33.105a7.503 7.503 0 1 0 14.692 3.054l7.516-36.159h14.517l-6.882 33.105a7.503 7.503 0 1 0 14.692 3.054l7.516-36.159h16.618a7.503 7.503 0 1 0 0-15.006h-13.499l5.994-28.835h16.571a7.503 7.503 0 1 0 0-15.006H437.18l6.735-32.401a7.503 7.503 0 0 0-14.691-3.054l-7.37 35.455h-14.517l6.735-32.401a7.503 7.503 0 0 0-14.691-3.054l-7.37 35.455h-16.536a7.503 7.503 0 1 0 0 15.006h13.416l-5.994 28.835zm37.807-28.835h14.517l-5.994 28.835h-14.517zM342.544 410.212a7.503 7.503 0 0 0-10.57.929 19.802 19.802 0 0 1-2.003 2.067c-3.618 3.222-8.222 4.856-13.684 4.856-14.625 0-26.523-11.898-26.523-26.523s11.898-26.523 26.523-26.523a26.376 26.376 0 0 1 14.823 4.525 7.505 7.505 0 0 0 10.418-2.016 7.505 7.505 0 0 0-2.016-10.418c-6.872-4.643-14.903-7.097-23.225-7.097-22.899 0-41.528 18.63-41.528 41.528 0 22.899 18.629 41.529 41.528 41.529 9.124 0 17.306-2.993 23.663-8.656a34.67 34.67 0 0 0 3.522-3.632 7.501 7.501 0 0 0-.928-10.569z" fill="#000000" data-original="#000000" class=""></path></g></svg>