<svg xmlns="http://www.w3.org/2000/svg" version="1.1" xmlns:xlink="http://www.w3.org/1999/xlink"
    xmlns:svgjs="http://svgjs.com/svgjs" width="512" height="512" x="0" y="0" viewBox="0 0 25 25"
    style="enable-background:new 0 0 512 512" xml:space="preserve" class="">
    <g>
        <path
            d="M18.21 2H6.79A2.83 2.83 0 0 0 4 4.86V21.2a1.67 1.67 0 0 0 1 1.54 1.57 1.57 0 0 0 1.74-.27l5.35-4.74a.69.69 0 0 1 .86 0l5.35 4.74a1.59 1.59 0 0 0 1.74.27 1.67 1.67 0 0 0 1-1.54V4.86A2.83 2.83 0 0 0 18.21 2z"
            data-name="Layer 21" fill="#000000" data-original="#000000" class=""></path>
    </g>
</svg>